<svg width="180" height="36" viewBox="0 0 180 36" fill="none" xmlns="http://www.w3.org/2000/svg">
<mask id="mask0" mask-type="alpha" maskUnits="userSpaceOnUse" x="30" y="0" width="150" height="36">
<path fill-rule="evenodd" clip-rule="evenodd" d="M65.5611 0C63.9887 0 62.6849 1.30362 62.6849 2.91395C62.6849 4.52427 63.9887 5.78942 65.5611 5.78942C67.1716 5.78942 68.4754 4.52427 68.4754 2.91395C68.4754 1.30362 67.1716 0 65.5611 0ZM176.01 0.0465642C175.638 0.0465642 175.336 0.348063 175.336 0.720396V26.7945H179.11C179.483 26.7945 179.784 26.4927 179.784 26.1205V0.720396C179.784 0.348063 179.483 0.0465642 179.11 0.0465642H176.01ZM170.045 0.0465642C169.673 0.0465642 169.371 0.348063 169.371 0.720396V26.7945H173.146C173.518 26.7945 173.82 26.4927 173.82 26.1205V0.720396C173.82 0.348063 173.518 0.0465642 173.146 0.0465642H170.045ZM90.5171 0.0465642C90.1448 0.0465642 89.8431 0.348063 89.8431 0.720396V26.7945H93.6174C93.9897 26.7945 94.2914 26.4927 94.2914 26.1205V15.3236C94.3681 12.9465 95.7104 11.1062 98.1646 11.1062C100.964 11.1062 101.999 12.9465 101.999 15.247V26.7945H105.773C106.146 26.7945 106.448 26.4927 106.448 26.1205V14.4802C106.448 10.3775 104.223 7.08027 99.6218 7.08027C97.6659 7.08027 95.5569 7.77046 94.2914 9.41909V0.720396C94.2914 0.348063 93.9897 0.0465642 93.6174 0.0465642H90.5171ZM31.5085 0.0465642C31.1362 0.0465642 30.8345 0.348063 30.8345 0.720396V26.7945H34.4938C34.866 26.7945 35.1676 26.4927 35.1676 26.1205V23.797C36.2415 25.5991 38.274 26.7492 40.9198 26.7492C46.3651 26.7492 49.7014 22.4934 49.7014 16.8573C49.7014 11.3746 46.6719 7.11856 41.0734 7.11856C38.1972 7.11856 36.0497 8.46066 35.2061 9.91745V0.720396C35.2061 0.348063 34.9043 0.0465642 34.5321 0.0465642H31.5085ZM35.1676 16.8956C35.1676 13.1766 37.3536 11.0677 40.1914 11.0677C43.144 11.0677 45.2147 13.1766 45.2147 16.8956C45.2147 20.5763 43.1057 22.8003 40.1914 22.8003C37.3536 22.8003 35.1676 20.5763 35.1676 16.8956ZM112.03 1.34784C111.658 1.34784 111.356 1.64934 111.356 2.02168V4.14655C111.356 5.79535 110.475 7.06049 108.48 7.06049H108.196C107.824 7.06049 107.522 7.36235 107.522 7.73451V11.0096H110.973V21.2455C110.973 24.7346 113.121 26.805 116.572 26.805C117.417 26.805 118.158 26.7179 118.798 26.5439C119.091 26.4639 119.295 26.1976 119.295 25.8936V23.4773C119.295 23.1052 118.993 22.8033 118.621 22.8033C118.596 22.8033 118.571 22.8048 118.547 22.8075C118.253 22.8396 117.99 22.8558 117.761 22.8558C116.112 22.8558 115.383 22.1658 115.383 20.517V11.0096H118.582C118.954 11.0096 119.256 10.708 119.256 10.3356V7.73451C119.256 7.36235 118.954 7.06049 118.582 7.06049H115.383V2.02168C115.383 1.64934 115.081 1.34784 114.709 1.34784H112.03ZM149.787 16.8573C149.787 23.1836 154.274 26.8643 159.336 26.8643C162.909 26.8643 165.603 25.136 167.418 21.6793C167.437 21.6441 167.452 21.6074 167.464 21.5693C167.577 21.2144 167.38 20.8358 167.025 20.7234L164.014 19.7711C162.685 21.9439 161.125 23.0302 159.336 23.0302C156.575 23.0302 154.351 20.9981 154.236 18.1609H167.887C167.926 18.0842 168.002 17.4707 168.002 16.7422C168.002 10.8378 164.628 7.04198 158.876 7.04198C154.159 7.04198 149.787 10.9528 149.787 16.8573ZM159.082 10.761C162.15 10.761 163.607 12.7165 163.684 14.902H154.519C154.672 12.9082 156.283 10.761 159.082 10.761ZM55.3871 10.608V7.78592C55.3871 7.41359 55.0854 7.11191 54.7131 7.11191H51.7279C51.3556 7.11191 51.0537 7.41359 51.0537 7.78592V26.7949H54.8283C55.2005 26.7949 55.5022 26.493 55.5022 26.1207V17.3943C55.5022 13.9052 57.0744 11.9114 60.5257 11.9114C60.7057 11.9114 60.9473 11.9247 61.2506 11.9512C61.6213 11.9835 61.948 11.709 61.9803 11.3379C61.9819 11.3185 61.9828 11.2991 61.9828 11.2797V7.75123C61.9828 7.40478 61.7202 7.11479 61.3754 7.08063C61.1715 7.06049 60.9777 7.05025 60.7941 7.05025C58.3399 7.05025 56.2691 8.5759 55.3871 10.608ZM84.459 7.0756C84.0868 7.0756 83.7851 7.37727 83.7851 7.74961V10.0731C82.7113 8.27116 80.6788 7.12108 78.0331 7.12108C72.5876 7.12108 69.2513 11.3768 69.2513 17.0128C69.2513 22.4957 72.2809 26.7516 77.8796 26.7516C80.7556 26.7516 82.9031 25.4095 83.7466 23.9527V26.4795H83.7409C83.7409 30.2512 81.9882 32.0417 78.4827 32.0417C76.1632 32.0417 74.6674 30.9184 73.9948 28.672C73.8907 28.3241 73.5299 28.1212 73.1784 28.213L69.7567 29.1084C70.2522 32.8418 73.6816 35.8895 78.5969 35.8895C85.57 35.8895 88.123 31.2798 88.123 26.3274H88.1185V7.74961C88.1185 7.37727 87.8166 7.0756 87.4443 7.0756H84.459ZM73.6322 16.8548C73.6322 13.1741 75.7414 10.9503 78.6559 10.9503C81.4934 10.9503 83.6792 13.1741 83.6792 16.8548C83.6792 20.5738 81.4934 22.6827 78.6559 22.6827C75.7031 22.6827 73.6322 20.5738 73.6322 16.8548ZM146.694 7.11155C146.394 7.11155 146.13 7.31057 146.047 7.59913L142.467 20.0327L138.213 7.56785C138.12 7.29511 137.864 7.11155 137.575 7.11155H133.938C133.65 7.11155 133.393 7.29511 133.3 7.56785L129.046 20.0327L125.392 7.59571C125.307 7.30878 125.044 7.11155 124.745 7.11155H121.407C121.34 7.11155 121.273 7.12162 121.209 7.1414C120.853 7.25106 120.653 7.62807 120.763 7.98387L126.553 26.7945H130.622C130.916 26.7945 131.177 26.6032 131.265 26.3222L135.642 12.3643L140.131 26.3269C140.221 26.6056 140.48 26.7945 140.773 26.7945H144.23C144.527 26.7945 144.789 26.6005 144.875 26.3165L150.448 7.98171C150.467 7.91807 150.477 7.85208 150.477 7.78574C150.477 7.41341 150.175 7.11155 149.803 7.11155H146.694ZM64.0493 7.11155C63.6769 7.11155 63.3753 7.41341 63.3753 7.78574V26.7952H67.2505C67.6229 26.7952 67.9245 26.4936 67.9245 26.1214V7.78574C67.9245 7.41341 67.6229 7.11155 67.2505 7.11155H64.0493Z" fill="white"/>
</mask>
<g mask="url(#mask0)">
<path fill-rule="evenodd" clip-rule="evenodd" d="M65.5611 0C63.9887 0 62.6849 1.30362 62.6849 2.91395C62.6849 4.52427 63.9887 5.78942 65.5611 5.78942C67.1716 5.78942 68.4754 4.52427 68.4754 2.91395C68.4754 1.30362 67.1716 0 65.5611 0ZM176.01 0.0465642C175.638 0.0465642 175.336 0.348063 175.336 0.720396V26.7945H179.11C179.483 26.7945 179.784 26.4927 179.784 26.1205V0.720396C179.784 0.348063 179.483 0.0465642 179.11 0.0465642H176.01ZM170.045 0.0465642C169.673 0.0465642 169.371 0.348063 169.371 0.720396V26.7945H173.146C173.518 26.7945 173.82 26.4927 173.82 26.1205V0.720396C173.82 0.348063 173.518 0.0465642 173.146 0.0465642H170.045ZM90.5171 0.0465642C90.1448 0.0465642 89.8431 0.348063 89.8431 0.720396V26.7945H93.6174C93.9897 26.7945 94.2914 26.4927 94.2914 26.1205V15.3236C94.3681 12.9465 95.7104 11.1062 98.1646 11.1062C100.964 11.1062 101.999 12.9465 101.999 15.247V26.7945H105.773C106.146 26.7945 106.448 26.4927 106.448 26.1205V14.4802C106.448 10.3775 104.223 7.08027 99.6218 7.08027C97.6659 7.08027 95.5569 7.77046 94.2914 9.41909V0.720396C94.2914 0.348063 93.9897 0.0465642 93.6174 0.0465642H90.5171ZM31.5085 0.0465642C31.1362 0.0465642 30.8345 0.348063 30.8345 0.720396V26.7945H34.4938C34.866 26.7945 35.1676 26.4927 35.1676 26.1205V23.797C36.2415 25.5991 38.274 26.7492 40.9198 26.7492C46.3651 26.7492 49.7014 22.4934 49.7014 16.8573C49.7014 11.3746 46.6719 7.11856 41.0734 7.11856C38.1972 7.11856 36.0497 8.46066 35.2061 9.91745V0.720396C35.2061 0.348063 34.9043 0.0465642 34.5321 0.0465642H31.5085ZM35.1676 16.8956C35.1676 13.1766 37.3536 11.0677 40.1914 11.0677C43.144 11.0677 45.2147 13.1766 45.2147 16.8956C45.2147 20.5763 43.1057 22.8003 40.1914 22.8003C37.3536 22.8003 35.1676 20.5763 35.1676 16.8956ZM112.03 1.34784C111.658 1.34784 111.356 1.64934 111.356 2.02168V4.14655C111.356 5.79535 110.475 7.06049 108.48 7.06049H108.196C107.824 7.06049 107.522 7.36235 107.522 7.73451V11.0096H110.973V21.2455C110.973 24.7346 113.121 26.805 116.572 26.805C117.417 26.805 118.158 26.7179 118.798 26.5439C119.091 26.4639 119.295 26.1976 119.295 25.8936V23.4773C119.295 23.1052 118.993 22.8033 118.621 22.8033C118.596 22.8033 118.571 22.8048 118.547 22.8075C118.253 22.8396 117.99 22.8558 117.761 22.8558C116.112 22.8558 115.383 22.1658 115.383 20.517V11.0096H118.582C118.954 11.0096 119.256 10.708 119.256 10.3356V7.73451C119.256 7.36235 118.954 7.06049 118.582 7.06049H115.383V2.02168C115.383 1.64934 115.081 1.34784 114.709 1.34784H112.03ZM149.787 16.8573C149.787 23.1836 154.274 26.8643 159.336 26.8643C162.909 26.8643 165.603 25.136 167.418 21.6793C167.437 21.6441 167.452 21.6074 167.464 21.5693C167.577 21.2144 167.38 20.8358 167.025 20.7234L164.014 19.7711C162.685 21.9439 161.125 23.0302 159.336 23.0302C156.575 23.0302 154.351 20.9981 154.236 18.1609H167.887C167.926 18.0842 168.002 17.4707 168.002 16.7422C168.002 10.8378 164.628 7.04198 158.876 7.04198C154.159 7.04198 149.787 10.9528 149.787 16.8573ZM159.082 10.761C162.15 10.761 163.607 12.7165 163.684 14.902H154.519C154.672 12.9082 156.283 10.761 159.082 10.761ZM55.3871 10.608V7.78592C55.3871 7.41359 55.0854 7.11191 54.7131 7.11191H51.7279C51.3556 7.11191 51.0537 7.41359 51.0537 7.78592V26.7949H54.8283C55.2005 26.7949 55.5022 26.493 55.5022 26.1207V17.3943C55.5022 13.9052 57.0744 11.9114 60.5257 11.9114C60.7057 11.9114 60.9473 11.9247 61.2506 11.9512C61.6213 11.9835 61.948 11.709 61.9803 11.3379C61.9819 11.3185 61.9828 11.2991 61.9828 11.2797V7.75123C61.9828 7.40478 61.7202 7.11479 61.3754 7.08063C61.1715 7.06049 60.9777 7.05025 60.7941 7.05025C58.3399 7.05025 56.2691 8.5759 55.3871 10.608ZM84.459 7.0756C84.0868 7.0756 83.7851 7.37727 83.7851 7.74961V10.0731C82.7113 8.27116 80.6788 7.12108 78.0331 7.12108C72.5876 7.12108 69.2513 11.3768 69.2513 17.0128C69.2513 22.4957 72.2809 26.7516 77.8796 26.7516C80.7556 26.7516 82.9031 25.4095 83.7466 23.9527V26.4795H83.7409C83.7409 30.2512 81.9882 32.0417 78.4827 32.0417C76.1632 32.0417 74.6674 30.9184 73.9948 28.672C73.8907 28.3241 73.5299 28.1212 73.1784 28.213L69.7567 29.1084C70.2522 32.8418 73.6816 35.8895 78.5969 35.8895C85.57 35.8895 88.123 31.2798 88.123 26.3274H88.1185V7.74961C88.1185 7.37727 87.8166 7.0756 87.4443 7.0756H84.459ZM73.6322 16.8548C73.6322 13.1741 75.7414 10.9503 78.6559 10.9503C81.4934 10.9503 83.6792 13.1741 83.6792 16.8548C83.6792 20.5738 81.4934 22.6827 78.6559 22.6827C75.7031 22.6827 73.6322 20.5738 73.6322 16.8548ZM146.694 7.11155C146.394 7.11155 146.13 7.31057 146.047 7.59913L142.467 20.0327L138.213 7.56785C138.12 7.29511 137.864 7.11155 137.575 7.11155H133.938C133.65 7.11155 133.393 7.29511 133.3 7.56785L129.046 20.0327L125.392 7.59571C125.307 7.30878 125.044 7.11155 124.745 7.11155H121.407C121.34 7.11155 121.273 7.12162 121.209 7.1414C120.853 7.25106 120.653 7.62807 120.763 7.98387L126.553 26.7945H130.622C130.916 26.7945 131.177 26.6032 131.265 26.3222L135.642 12.3643L140.131 26.3269C140.221 26.6056 140.48 26.7945 140.773 26.7945H144.23C144.527 26.7945 144.789 26.6005 144.875 26.3165L150.448 7.98171C150.467 7.91807 150.477 7.85208 150.477 7.78574C150.477 7.41341 150.175 7.11155 149.803 7.11155H146.694ZM64.0493 7.11155C63.6769 7.11155 63.3753 7.41341 63.3753 7.78574V26.7952H67.2505C67.6229 26.7952 67.9245 26.4936 67.9245 26.1214V7.78574C67.9245 7.41341 67.6229 7.11155 67.2505 7.11155H64.0493Z" fill="url(#paint0_linear)"/>
</g>
<mask id="mask1" mask-type="alpha" maskUnits="userSpaceOnUse" x="0" y="2" width="6" height="7">
<path fill-rule="evenodd" clip-rule="evenodd" d="M0.762207 8.9302H5.05905C5.42905 8.9302 5.72893 8.63032 5.72893 8.26033V2.40942C3.45807 3.99692 1.70212 6.27083 0.762207 8.9302Z" fill="white"/>
</mask>
<g mask="url(#mask1)">
<path fill-rule="evenodd" clip-rule="evenodd" d="M0.762207 8.9302H5.05905C5.42905 8.9302 5.72893 8.63032 5.72893 8.26033V2.40942C3.45807 3.99692 1.70212 6.27083 0.762207 8.9302Z" fill="url(#paint1_linear)"/>
</g>
<mask id="mask2" mask-type="alpha" maskUnits="userSpaceOnUse" x="7" y="0" width="10" height="6">
<path fill-rule="evenodd" clip-rule="evenodd" d="M13.3954 0C11.1105 0 8.959 0.572074 7.07666 1.58102V5.05895C7.07666 5.42895 7.37654 5.72883 7.74654 5.72883H15.8428C16.2126 5.72883 16.5126 5.42895 16.5126 5.05895V0.364423C15.5123 0.126209 14.4685 0 13.3954 0Z" fill="white"/>
</mask>
<g mask="url(#mask2)">
<path fill-rule="evenodd" clip-rule="evenodd" d="M13.3954 0C11.1105 0 8.959 0.572074 7.07666 1.58102V5.05895C7.07666 5.42895 7.37654 5.72883 7.74654 5.72883H15.8428C16.2126 5.72883 16.5126 5.42895 16.5126 5.05895V0.364423C15.5123 0.126209 14.4685 0 13.3954 0Z" fill="url(#paint2_linear)"/>
</g>
<mask id="mask3" mask-type="alpha" maskUnits="userSpaceOnUse" x="17" y="0" width="8" height="6">
<path fill-rule="evenodd" clip-rule="evenodd" d="M17.8604 5.05887C17.8604 5.42887 18.1602 5.72875 18.5302 5.72875H24.3813C22.7935 3.45789 20.5195 1.70212 17.8604 0.762207V5.05887Z" fill="white"/>
</mask>
<g mask="url(#mask3)">
<path fill-rule="evenodd" clip-rule="evenodd" d="M17.8604 5.05887C17.8604 5.42887 18.1602 5.72875 18.5302 5.72875H24.3813C22.7935 3.45789 20.5195 1.70212 17.8604 0.762207V5.05887Z" fill="url(#paint3_linear)"/>
</g>
<mask id="mask4" mask-type="alpha" maskUnits="userSpaceOnUse" x="21" y="7" width="6" height="10">
<path fill-rule="evenodd" clip-rule="evenodd" d="M21.7317 7.0769C21.3619 7.0769 21.062 7.37678 21.062 7.7466V15.8428C21.062 16.2128 21.3619 16.5125 21.7317 16.5125H26.4262C26.6646 15.5124 26.7908 14.4687 26.7908 13.3954C26.7908 11.1105 26.2186 8.95925 25.21 7.0769H21.7317Z" fill="white"/>
</mask>
<g mask="url(#mask4)">
<path fill-rule="evenodd" clip-rule="evenodd" d="M21.7317 7.0769C21.3619 7.0769 21.062 7.37678 21.062 7.7466V15.8428C21.062 16.2128 21.3619 16.5125 21.7317 16.5125H26.4262C26.6646 15.5124 26.7908 14.4687 26.7908 13.3954C26.7908 11.1105 26.2186 8.95925 25.21 7.0769H21.7317Z" fill="url(#paint4_linear)"/>
</g>
<mask id="mask5" mask-type="alpha" maskUnits="userSpaceOnUse" x="21" y="17" width="6" height="8">
<path fill-rule="evenodd" clip-rule="evenodd" d="M21.7317 17.8604C21.3619 17.8604 21.062 18.1604 21.062 18.5302V24.3813C23.333 22.7936 25.0888 20.5197 26.0286 17.8604H21.7317Z" fill="white"/>
</mask>
<g mask="url(#mask5)">
<path fill-rule="evenodd" clip-rule="evenodd" d="M21.7317 17.8604C21.3619 17.8604 21.062 18.1604 21.062 18.5302V24.3813C23.333 22.7936 25.0888 20.5197 26.0286 17.8604H21.7317Z" fill="url(#paint5_linear)"/>
</g>
<mask id="mask6" mask-type="alpha" maskUnits="userSpaceOnUse" x="10" y="21" width="10" height="6">
<path fill-rule="evenodd" clip-rule="evenodd" d="M10.948 21.062C10.578 21.062 10.2783 21.3617 10.2783 21.7317V26.4262C11.2785 26.6646 12.3223 26.7908 13.3954 26.7908C15.6803 26.7908 17.8318 26.2188 19.7139 25.2098V21.7317C19.7139 21.3617 19.4142 21.062 19.0442 21.062H10.948Z" fill="white"/>
</mask>
<g mask="url(#mask6)">
<path fill-rule="evenodd" clip-rule="evenodd" d="M10.948 21.062C10.578 21.062 10.2783 21.3617 10.2783 21.7317V26.4262C11.2785 26.6646 12.3223 26.7908 13.3954 26.7908C15.6803 26.7908 17.8318 26.2188 19.7139 25.2098V21.7317C19.7139 21.3617 19.4142 21.062 19.0442 21.062H10.948Z" fill="url(#paint6_linear)"/>
</g>
<mask id="mask7" mask-type="alpha" maskUnits="userSpaceOnUse" x="2" y="21" width="7" height="6">
<path fill-rule="evenodd" clip-rule="evenodd" d="M2.40967 21.062C3.99734 23.3329 6.27108 25.0886 8.93045 26.0286V21.9205C8.93045 21.622 8.89935 21.5138 8.84092 21.4045C8.78267 21.2954 8.69691 21.2098 8.58796 21.1514C8.47865 21.0931 8.37042 21.062 8.0718 21.062H2.40967Z" fill="white"/>
</mask>
<g mask="url(#mask7)">
<path fill-rule="evenodd" clip-rule="evenodd" d="M2.40967 21.062C3.99734 23.3329 6.27108 25.0886 8.93045 26.0286V21.9205C8.93045 21.622 8.89935 21.5138 8.84092 21.4045C8.78267 21.2954 8.69691 21.2098 8.58796 21.1514C8.47865 21.0931 8.37042 21.062 8.0718 21.062H2.40967Z" fill="url(#paint7_linear)"/>
</g>
<mask id="mask8" mask-type="alpha" maskUnits="userSpaceOnUse" x="0" y="10" width="6" height="10">
<path fill-rule="evenodd" clip-rule="evenodd" d="M0.364603 10.2781C0.126209 11.2784 0 12.322 0 13.3954C0 15.6802 0.572074 17.8315 1.58084 19.7139H5.05895C5.42895 19.7139 5.72883 19.414 5.72883 19.0442V10.948C5.72883 10.5781 5.42895 10.2781 5.05895 10.2781H0.364603Z" fill="white"/>
</mask>
<g mask="url(#mask8)">
<path fill-rule="evenodd" clip-rule="evenodd" d="M0.364603 10.2781C0.126209 11.2784 0 12.322 0 13.3954C0 15.6802 0.572074 17.8315 1.58084 19.7139H5.05895C5.42895 19.7139 5.72883 19.414 5.72883 19.0442V10.948C5.72883 10.5781 5.42895 10.2781 5.05895 10.2781H0.364603Z" fill="url(#paint8_linear)"/>
</g>
<mask id="mask9" mask-type="alpha" maskUnits="userSpaceOnUse" x="7" y="7" width="13" height="13">
<path fill-rule="evenodd" clip-rule="evenodd" d="M7.74654 7.0769C7.37654 7.0769 7.07666 7.37678 7.07666 7.7466V19.0443C7.07666 19.4141 7.37654 19.714 7.74654 19.714H19.0442C19.4142 19.714 19.7139 19.4141 19.7139 19.0443V7.7466C19.7139 7.37678 19.4142 7.0769 19.0442 7.0769H7.74654Z" fill="white"/>
</mask>
<g mask="url(#mask9)">
<path fill-rule="evenodd" clip-rule="evenodd" d="M7.74654 7.0769C7.37654 7.0769 7.07666 7.37678 7.07666 7.7466V19.0443C7.07666 19.4141 7.37654 19.714 7.74654 19.714H19.0442C19.4142 19.714 19.7139 19.4141 19.7139 19.0443V7.7466C19.7139 7.37678 19.4142 7.0769 19.0442 7.0769H7.74654Z" fill="url(#paint9_linear)"/>
</g>
<defs>
<linearGradient id="paint0_linear" x1="-19.4515" y1="30.4645" x2="60.3966" y2="122.55" gradientUnits="userSpaceOnUse">
<stop stop-color="#42CA90"/>
<stop offset="1" stop-color="#338AF2"/>
</linearGradient>
<linearGradient id="paint1_linear" x1="0.400994" y1="119.149" x2="173.3" y2="125.865" gradientUnits="userSpaceOnUse">
<stop stop-color="#42CA90"/>
<stop offset="1" stop-color="#338AF2"/>
</linearGradient>
<linearGradient id="paint2_linear" x1="-4.49791" y1="54.9071" x2="164.729" y2="85.6464" gradientUnits="userSpaceOnUse">
<stop stop-color="#42CA90"/>
<stop offset="1" stop-color="#338AF2"/>
</linearGradient>
<linearGradient id="paint3_linear" x1="-2.55855" y1="68.1354" x2="169.198" y2="87.9603" gradientUnits="userSpaceOnUse">
<stop stop-color="#42CA90"/>
<stop offset="1" stop-color="#338AF2"/>
</linearGradient>
<linearGradient id="paint4_linear" x1="0.976397" y1="152.755" x2="173.867" y2="157.022" gradientUnits="userSpaceOnUse">
<stop stop-color="#42CA90"/>
<stop offset="1" stop-color="#338AF2"/>
</linearGradient>
<linearGradient id="paint5_linear" x1="-0.538049" y1="133.186" x2="172.361" y2="139.901" gradientUnits="userSpaceOnUse">
<stop stop-color="#42CA90"/>
<stop offset="1" stop-color="#338AF2"/>
</linearGradient>
<linearGradient id="paint6_linear" x1="-5.87811" y1="75.5294" x2="163.35" y2="106.266" gradientUnits="userSpaceOnUse">
<stop stop-color="#42CA90"/>
<stop offset="1" stop-color="#338AF2"/>
</linearGradient>
<linearGradient id="paint7_linear" x1="-3.95407" y1="88.9884" x2="167.803" y2="108.812" gradientUnits="userSpaceOnUse">
<stop stop-color="#42CA90"/>
<stop offset="1" stop-color="#338AF2"/>
</linearGradient>
<linearGradient id="paint8_linear" x1="0.673152" y1="157.286" x2="173.564" y2="161.553" gradientUnits="userSpaceOnUse">
<stop stop-color="#42CA90"/>
<stop offset="1" stop-color="#338AF2"/>
</linearGradient>
<linearGradient id="paint9_linear" x1="-1.44682" y1="99.1428" x2="171.264" y2="110.707" gradientUnits="userSpaceOnUse">
<stop stop-color="#42CA90"/>
<stop offset="1" stop-color="#338AF2"/>
</linearGradient>
</defs>
</svg>
