<svg width="26" height="22" viewBox="0 0 26 22" fill="none" xmlns="http://www.w3.org/2000/svg">
<path fill-rule="evenodd" clip-rule="evenodd" d="M13.4239 1.00322C8.22148 1.00322 4.00346 5.22124 4.00346 10.4237C4.00346 15.627 8.22153 19.8441 13.4239 19.8441C18.6263 19.8441 22.8443 15.627 22.8443 10.4237C22.8443 5.22124 18.6263 1.00322 13.4239 1.00322ZM9.74985 3.23625C10.8519 2.67173 12.1007 2.35322 13.4239 2.35322C14.7211 2.35322 15.9468 2.65934 17.0328 3.20326L15.0231 5.21299C14.5174 5.05794 13.9804 4.97449 13.4239 4.97449C12.8399 4.97449 12.2774 5.06638 11.7501 5.23648L9.74985 3.23625ZM10.457 5.85257L8.57576 3.97135C7.96877 4.42818 7.4283 4.96866 6.97149 5.57566L8.85272 7.45748C9.26915 6.81687 9.81656 6.26924 10.457 5.85257ZM8.23697 8.75103L6.23639 6.74981C5.67193 7.85179 5.35346 9.10056 5.35346 10.4237C5.35346 11.7209 5.65949 12.9466 6.20326 14.0325L8.21339 12.0217C8.05865 11.5164 7.97539 10.9799 7.97539 10.4239C7.97539 9.84035 8.06712 9.27816 8.23697 8.75103ZM8.81428 13.3301L6.92939 15.2156C7.38108 15.8267 7.91697 16.3719 8.51993 16.8338L10.3984 14.956C9.76342 14.5313 9.22272 13.9766 8.81428 13.3301ZM11.6772 15.5865L9.68525 17.5778C10.803 18.1631 12.0748 18.4941 13.4239 18.4941C14.7471 18.4941 15.9959 18.1757 17.0979 17.6112L15.0968 15.6108C14.5697 15.7807 14.0075 15.8724 13.4239 15.8724C12.813 15.8724 12.2255 15.7719 11.6772 15.5865ZM16.3903 14.995L18.2721 16.8762C18.8791 16.4194 19.4195 15.879 19.8763 15.272L17.9949 13.3905C17.5783 14.031 17.0308 14.5785 16.3903 14.995ZM18.6107 12.0972L20.6114 14.0979C21.1759 12.9959 21.4943 11.747 21.4943 10.4237C21.4943 9.07456 21.1632 7.80272 20.5778 6.685L18.5863 8.67656C18.7718 9.2251 18.8724 9.81278 18.8724 10.4239C18.8724 11.0077 18.7806 11.57 18.6107 12.0972ZM17.9558 7.39785L19.8339 5.51977C19.3719 4.9169 18.8269 4.38108 18.2158 3.92943L16.331 5.81422C16.9771 6.22265 17.5313 6.76319 17.9558 7.39785ZM9.32539 10.4239C9.32539 8.16007 11.1604 6.32449 13.4239 6.32449C15.6874 6.32449 17.5224 8.16007 17.5224 10.4239C17.5224 12.6876 15.6876 14.5224 13.4239 14.5224C11.1602 14.5224 9.32539 12.6876 9.32539 10.4239Z" fill="black"/>
</svg>
